<?xml version="1.0" encoding="utf-8"?>
<!-- Generator: Adobe Illustrator 18.1.0, SVG Export Plug-In . SVG Version: 6.00 Build 0)  -->
<!DOCTYPE svg PUBLIC "-//W3C//DTD SVG 1.1//EN" "http://www.w3.org/Graphics/SVG/1.1/DTD/svg11.dtd">
<svg version="1.1" id="Layer_1" xmlns="http://www.w3.org/2000/svg" xmlns:xlink="http://www.w3.org/1999/xlink" x="0px" y="0px"
	 viewBox="0 0 500 500.7" enable-background="new 0 0 500 500.7" xml:space="preserve">
<path d="M499,43.9c-2.6-29.7-23.3-43.4-46.2-43.2c-30,0.2-60-0.5-90-0.5c-105.3-0.1-210.6-0.3-316,0.1C19.2,0.3,1.7,20.1,0.8,43.9
	c-0.3,7.8-0.6,15.7-0.6,23.5c0,61.3,0,122.7,0,184c-0.1,0-0.1,0-0.2,0c0,31.8-0.1,63.7,0,95.5c0.2,37.5-0.6,75,0.8,112.5
	c0.7,18.7,12.1,33.1,30,38.7c6.3,1.9,12.7,2.6,19.2,2.6c133.8,0.1,267.6,0.2,401.4,0.4c6.3,0,12.2-1.1,18.1-3
	c17.3-5.6,29.9-19.2,30-42.1c0.6-119,0.4-238,0.4-357C499.9,80.5,500.6,62.2,499,43.9z M431.4,106.4c-13.1,15.6-28.1,29.4-42.2,44
	c-16.9,17.3-33.7,34.6-50.8,51.7c-3.3,3.3-4.1,6.3-2.9,11c16.5,63.8,32.6,127.7,49.2,191.4c1.8,6.9,1.1,11.8-4.3,16.7
	c-8.5,7.8-16.5,16-24.5,24.3c-3.2,3.3-4.6,2.7-6.6-1.1c-20-38.2-40-76.4-60.1-114.5c-8.5-16.2-17.3-32.3-25.8-48.5
	c-1.7-3.2-2.9-4.1-6-1.1c-21.1,20.2-41.7,40.8-61.9,61.8c-3.7,3.8-4.8,7.8-4,13.1c2,14.3,3.5,28.8,5.2,43.1c0.2,1.8,0.1,3.1-1.3,4.5
	c-7.7,7.4-15.3,14.9-22.8,22.4c-2.9,2.9-4.6,3-6.8-1.1c-8.8-17-18.1-33.7-27-50.7c-2.3-4.3-5.3-7.4-9.6-9.6
	c-16.8-8.8-33.4-18-50.3-26.7c-4.6-2.4-4-4.1-1-7c7.2-7.2,14.3-14.4,21.3-21.8c2.1-2.2,4.3-2.2,6.8-1.7c15.4,1.9,30.7,3.7,46.1,5.7
	c2.8,0.4,4.6-0.2,6.6-2.2c21-21.4,42.2-42.6,63.3-64c4.1-4.1,4-4.2-1.2-7c-54.2-28.9-108.4-57.7-162.6-86.5c-5.6-3-5.7-3.1-1.4-7.5
	c9.4-9.7,19-19.2,28.3-28.9c2-2.1,3.9-1.9,6.2-1.3c38.4,10.2,76.8,20.4,115.3,30.6c30.1,8,60.1,15.9,90.2,24
	c3.3,0.9,4.9-0.6,6.8-2.5c29-28.7,58-57.5,87.1-86.1c5.4-5.3,10.6-11,19.1-11.8c10.1-1,19.1,3.2,24.3,12.3
	C438.6,89.2,437.7,98.8,431.4,106.4z"/>
</svg>
