<?xml version="1.0" encoding="utf-8"?>
<!-- Generator: Adobe Illustrator 18.1.0, SVG Export Plug-In . SVG Version: 6.00 Build 0)  -->
<!DOCTYPE svg PUBLIC "-//W3C//DTD SVG 1.1//EN" "http://www.w3.org/Graphics/SVG/1.1/DTD/svg11.dtd">
<svg version="1.1" id="Layer_1" xmlns="http://www.w3.org/2000/svg" xmlns:xlink="http://www.w3.org/1999/xlink" x="0px" y="0px"
	 viewBox="0 0 135.2 204.8" enable-background="new 0 0 135.2 204.8" xml:space="preserve">
<path d="M106.2,92.1c-6.8-2.4-13.7-4.1-20.8-4.8C82.9,87,82,86,82,83.5c0.1-9,0.1-18,0-27c0-2.9,1.1-3.5,3.7-2.6
	c7.5,2.7,11.7,8.3,13.6,15.8c0.6,2.6,1.7,3.4,4.3,3.4c8.2-0.1,16.5-0.1,24.7,0c2.9,0,3.7-1.1,3.4-3.9c-0.7-6.8-2.3-13.3-5.7-19.2
	c-9-15.7-22.9-24.3-40.5-27.4c-3-0.5-4-1.5-3.9-4.5c0.2-4.9-0.1-9.7,0.1-14.6C81.9,0.9,80.9,0,78.3,0c-7.7,0.1-15.5,0.2-23.2,0
	c-2.9-0.1-3.7,1.2-3.6,3.8c0.1,4.7-0.1,9.5,0,14.2c0.1,2.9-0.9,4.1-3.9,4.7c-11.7,2.1-22,7.3-30.9,15.1
	C-3.7,55.4-4.9,94.3,27.8,107.9c6.4,2.7,12.9,4.7,19.8,5.7c2.8,0.4,4.1,1.6,3.9,4.6c-0.2,4.7-0.1,9.5-0.1,14.2c0,4.9-0.1,9.7,0,14.6
	c0.1,3-0.9,3.9-3.8,2.6c-4.5-2-8.1-4.9-10.6-9.1c-2.1-3.5-3.4-7.2-4.2-11.2c-0.5-2.3-1.5-3.3-4-3.3c-8.5,0.1-17,0.1-25.5,0
	c-2.7,0-3.7,0.9-3.3,3.5c0.2,1,0.2,2,0.4,3c5.2,26.5,22.2,41.6,47.2,48.9c2.8,0.8,3.9,1.9,3.8,4.8c-0.2,5,0,10,0,15
	c0,2.4,0.7,3.6,3.4,3.6c7.9-0.1,15.7-0.1,23.6,0c2.9,0.1,3.7-1.2,3.6-3.8c-0.1-4.6,0.1-9.3-0.1-13.9c-0.1-3.1,0.7-4.5,4.2-5
	c16.8-2.7,30.4-10.9,40.5-24.7C140.6,138.4,140.1,104,106.2,92.1z M51.7,67.6C51.7,67.6,51.7,67.6,51.7,67.6c0,3.6-0.1,7.2,0,10.9
	c0,2.1-0.9,2.8-3,2.7c-5.4-0.2-11.2-4.1-12.8-8.9c-1.6-4.8,0.2-10.3,4.7-14c2.2-1.9,4.9-3,7.6-4c2.7-0.9,3.7,0,3.6,2.8
	C51.6,60.6,51.7,64.1,51.7,67.6z M99.2,144.1c-3.8,3.7-8.6,5.4-13.7,6.6c-2.1,0.5-3-0.3-3-2.5c0-4.4,0-8.7,0-13.1c0,0,0,0,0.1,0
	c0-4.2,0-8.5,0-12.7c0-1.9,0.7-2.8,2.7-2.6c4.8,0.5,9.4,1.7,13.2,4.8C105,129.9,105.3,138.2,99.2,144.1z"/>
</svg>
