<?xml version="1.0" encoding="utf-8"?>
<!-- Generator: Adobe Illustrator 18.1.0, SVG Export Plug-In . SVG Version: 6.00 Build 0)  -->
<!DOCTYPE svg PUBLIC "-//W3C//DTD SVG 1.1//EN" "http://www.w3.org/Graphics/SVG/1.1/DTD/svg11.dtd">
<svg version="1.1" id="Layer_1" xmlns="http://www.w3.org/2000/svg" xmlns:xlink="http://www.w3.org/1999/xlink" x="0px" y="0px"
	 viewBox="0 0 477.8 502.2" enable-background="new 0 0 477.8 502.2" xml:space="preserve">
<path d="M63.7,375.3c0-40.2-0.1-80.3,0.1-120.5c0-4.5-1.1-5.9-5.8-5.8c-15.3,0.3-30.7,0.1-46,0.1c-4.8,0-9.1-0.9-11.2-5.7
	c-2.1-5,0-8.9,3.6-12.5C79.9,155.5,155.3,80,230.7,4.6c6.1-6.1,10.6-6.1,16.7-0.1C322.8,80,398.1,155.4,473.6,230.8
	c3.5,3.5,5.5,7.3,3.5,12.1c-2,4.9-6.3,5.8-11.1,5.7c-15.5-0.1-31,0.1-46.5-0.2c-4.6-0.1-5.4,1.5-5.4,5.7c0.1,80.3,0.1,160.7,0.1,241
	c0,7,0,7-7,7c-38.2,0-76.3-0.1-114.5,0.1c-4.1,0-5.3-1-5.3-5.2c0.1-45.8,0.1-91.7,0.1-137.5c0-10-3-13.1-13.1-13.1
	c-23.8,0-47.7,0-71.5,0c-9.4,0-12.5,3.1-12.5,12.7c0,45.8-0.1,91.7,0.1,137.5c0,4.4-1.1,5.6-5.5,5.6c-38.7-0.2-77.3-0.2-116,0
	c-4.1,0-5.3-1.1-5.3-5.3C63.8,456.3,63.7,415.8,63.7,375.3z"/>
</svg>
