<?xml version="1.0" encoding="utf-8"?>
<!-- Generator: Adobe Illustrator 18.1.0, SVG Export Plug-In . SVG Version: 6.00 Build 0)  -->
<!DOCTYPE svg PUBLIC "-//W3C//DTD SVG 1.1//EN" "http://www.w3.org/Graphics/SVG/1.1/DTD/svg11.dtd">
<svg version="1.1" id="Layer_1" xmlns="http://www.w3.org/2000/svg" xmlns:xlink="http://www.w3.org/1999/xlink" x="0px" y="0px"
	 viewBox="0 133 512 251" enable-background="new 0 133 512 251" xml:space="preserve">
<g id="Layer_2">
</g>
<g id="Layer_1_1_">
	
		<image overflow="visible" opacity="0.75" width="234" height="181" xlink:href="5E3A48D88E6D77C4.png"  transform="matrix(1 0 0 1 -9 198)">
	</image>
	<g>
		<g>
			<g enable-background="new    ">
				<path d="M185.4,220.2c0,2.8-2.8,5.2-8.4,7.1s-12.4,2.9-20.5,2.9c-8.1,0-18.2-1.1-30.3-3.3c-6.4,3.3-12.2,8.2-17.5,14.7
					c-5.3,6.5-10.9,15.7-17,27.6C85.8,281.1,81.4,289,78.5,293c-2.8,4-6.7,7.8-11.6,11.5c-13,9.6-26.5,14.4-40.4,14.4
					c-7.4,0-13.5-1.6-18.3-4.7s-7.1-7.2-7.1-12.3c0-2.5,0.7-4.7,2.2-6.5c1.5-1.8,3.3-2.7,5.4-2.7c3.4,0,5,1.8,5,5.3
					c0,1.7-0.5,3.1-1.6,4.3c-1,1.2-2.3,1.8-3.8,1.8c-2.4,0-3.6-1.2-3.6-3.6c0-1.2-0.2-1.9-0.6-1.9c-0.9,0-1.3,1.3-1.3,3.8
					c0,4.2,2.2,7.7,6.5,10.6c4.3,2.9,9.6,4.3,15.9,4.3c13.9,0,26.3-6.3,37.3-18.8c5.2-5.8,11.8-15.5,20-28.9
					c13.3-21.8,27.3-36.2,41.8-43.1c-2.8-0.5-7-1.3-12.6-2.6c-13.1-2.8-23.2-4.3-30.2-4.3c-0.7,0-2.9,0.1-6.5,0.3
					c2.4,4.6,3.6,9.7,3.6,15.6c0,11.4-4.3,22.1-13,32c-8.6,10-17.9,15-27.7,15c-4.1,0-7.4-1.4-10-4.1c-2.6-2.7-3.8-6.2-3.8-10.5
					c0-5.9,2.2-12.4,6.7-19.6c4.5-7.2,10.3-13.4,17.4-18.8c7.1-5.4,14.9-9.1,23.4-11.2c-4.1-5.5-9.9-8.3-17.4-8.3
					c-6.4,0-12.8,1.9-19.3,5.6c-6.5,3.7-12.2,8.7-17.1,15.1c-0.7,1-1.2,1.5-1.5,1.5c-0.3,0-0.5-0.2-0.6-0.5c0-0.9,2.1-3.4,6.4-7.7
					C32.5,214.1,43.1,209,54.2,209c8.6,0,15.2,3,19.7,9.1c6.3-1.8,13.4-2.7,21.6-2.7c4.2,0,8,0.3,11.5,0.8c3.7,0.6,12.7,2.3,27,5.3
					c11.9-5.2,23.4-7.8,34.4-7.8C179.7,213.6,185.4,215.8,185.4,220.2z M75.8,231.9c0-4.1-1-8-2.9-11.5
					c-11.6,1.9-22.4,7.9-32.3,17.9c-10,10-15,19.9-15,29.6c0,3.7,1.1,6.9,3.5,9.4c2.3,2.5,5.1,3.8,8.5,3.8c8.7,0,17.3-5.4,25.7-16.2
					C71.6,254.2,75.8,243.2,75.8,231.9z M184.2,220.4c0-1.5-1.5-2.8-4.4-3.8c-2.9-1-6.6-1.6-11.1-1.6c-11.1,0-21.8,2.3-32.2,7
					c1.3,0.2,4.7,0.8,10.3,1.9c8.3,1.6,15.6,2.4,22,2.4c4.2,0,7.8-0.6,10.8-1.7C182.7,223.4,184.2,222,184.2,220.4z"/>
				<path d="M141,291.1c0,0.4-1.6,2.3-4.7,5.7c-3.9,4.4-7.6,6.5-11.1,6.5c-3.9,0-5.9-2.3-5.9-6.8c0-1.4,0.3-3.3,0.9-5.5
					c-3.3,2.8-5.9,5.7-8,8.5c-2,2.8-5.6,8.5-10.6,17.1c-2.7-0.2-4.3-0.3-4.8-0.3c-0.2,0-1.8,0.1-4.7,0.3l12.7-20.6
					c6.4-10.3,9.5-16.8,9.5-19.2c0-1.4-0.6-2.2-1.8-2.2c-2.9,0-8.2,5.6-15.8,16.7c-0.5,0.7-0.9,1.1-1.2,1.1
					c-0.2-0.1-0.3-0.2-0.3-0.5c0.1-0.3,0.2-0.5,0.3-0.6l1.4-1.9c8-10.6,13.4-15.9,16.2-15.9c4.1,0,6.2,2.7,6.2,8
					c0,4-2.1,9.3-6.4,15.8c2.7-3.1,5.2-5.6,7.7-7.6c2-4.6,4.4-8.5,7.3-11.6c2.9-3.1,5.5-4.7,7.9-4.7c1.6,0,2.4,0.7,2.4,2.1
					c0,2.5-3.6,6-10.8,10.6c-1.1,0.7-2.8,1.8-5.1,3.2l-0.9,0.8c-0.7,2.4-1.1,4.3-1.1,5.9c0,4.3,1.6,6.5,4.9,6.5c4,0,8.4-3.3,13.2-10
					c1-1.1,1.7-1.7,1.9-1.7C140.8,290.6,141,290.8,141,291.1z"/>
				<path d="M167.4,291.1c-0.1,0.2-0.3,0.6-0.8,1.2l-3.3,4.6c-9.7,13.5-17.2,20.3-22.3,20.3c-2.4,0-4.5-0.9-6.1-2.6
					c-1.6-1.7-2.4-3.9-2.4-6.5c0-3,1.8-7.5,5.4-13.7l12.1-20.6c1.6,0.4,2.9,0.5,3.8,0.5c1.4,0,3.4-0.2,5.9-0.5L142,302.9
					c-2.5,4.2-3.8,7.4-3.8,9.7c0,2.3,1.2,3.5,3.7,3.5c4.6,0,12.7-8.2,24.3-24.6c0.3-0.5,0.5-0.8,0.8-0.8
					C167.3,290.6,167.4,290.8,167.4,291.1z M166.3,259c0,1.8-0.8,3.5-2.3,5.1c-1.5,1.6-3.2,2.4-5,2.4c-2.3,0-3.5-1.2-3.5-3.5
					c0-1.7,0.8-3.3,2.4-4.9c1.6-1.6,3.3-2.4,5-2.4C165.2,255.7,166.3,256.8,166.3,259z"/>
				<path d="M204.5,285.7c0,8.4-5.2,16.1-15.7,23c-8.5,5.6-15.2,8.5-20,8.5c-3.3,0-5-1.6-5-4.7c0-0.9,0.3-2.2,0.8-3.8l-29.7,49.6
					c-1.8-0.4-3.3-0.6-4.4-0.6c-1.7,0-3.4,0.3-5,0.9L189,253.9c1.4,0.5,2.8,0.7,4.1,0.7c1.4,0,3.1-0.2,5.1-0.7l-23,37.2
					c5.5-7.3,9.6-12.2,12.1-14.4c2.5-2.3,5-3.4,7.5-3.4c2.7,0,5,1.2,6.9,3.6C203.6,279.3,204.5,282.2,204.5,285.7z M198.7,279.5
					c0-3.4-1.5-5-4.5-5c-3.8,0-10.1,6.1-19,18.2c-6.9,9.4-10.3,15.9-10.3,19.4c0,2.6,1.2,4,3.6,4c4.8,0,11-4.6,18.7-13.9
					C194.9,292.8,198.7,285.3,198.7,279.5z"/>
			</g>
		</g>
	</g>
</g>
<g id="Layer_4">
	
		<image overflow="visible" opacity="0.75" width="338" height="277" xlink:href="5E3A48D88E6D77C5.png"  transform="matrix(1 0 0 1 91 124)">
	</image>
	<g>
		<g>
			<g enable-background="new    ">
				<path fill="#FFFFFF" d="M408.6,140.7c0,1.1-0.6,1.6-1.8,1.6c-0.4,0-1.1-0.1-2-0.4c-6.3-2.3-12.4-3.5-18.4-3.5
					c-35.5,0-81,28.8-136.6,86.3c-27.3,28.2-47.3,47.8-60.2,58.6c-12.9,10.8-27.8,20.8-44.9,29.8c16.1-4.1,37.2-6.1,63.4-6.1
					c9.7,0,17.7,0.3,24.1,0.8c7.5-11.5,23.7-34.4,48.7-68.7c21.4-29.6,34.9-50,40.3-61.1c0.7-1.6,1.5-2.5,2.5-2.5
					c0.5,0.1,0.8,0.4,0.8,0.8c0,0.3-0.1,0.7-0.4,1.2l-2,4.1c-1.6,3.3-11.5,21-29.5,53.2c-17.3,31.4-30.3,56.1-38.9,74.2
					c8.3,0.5,16.1,0.8,23.3,0.8c14.3,0,25.9-3.1,34.9-9.4c8.9-6.3,13.4-14.3,13.4-24.1c0-3.5-1-7.4-2.9-11.7c-0.3-0.5-0.4-1.2-0.4-2
					c0-1,0.4-1.4,1.2-1.4c3,0,4.5,5,4.5,15.1c0,27.4-26.1,41.1-78.3,41.1c-11.9,26-19.1,47-21.7,62.8c-5-1.6-10.1-2.5-15.1-2.5
					c-6.3,0-13.1,0.8-20.5,2.5c7.2-19.6,18.5-40.6,33.9-62.8c-3-0.1-10.3-0.7-21.9-1.6c-16.1-1.8-28-2.7-35.6-2.7
					c-7.5,0-15.9,0.6-25.2,1.8c-16.2,10.3-29.2,15.4-38.9,15.4c-2.3,0-3.5-0.7-3.5-2c0-4.7,13.2-9.7,39.5-15.2
					c18.8-11,34.5-22,47-32.9c11.9-10.1,31.9-29.7,60.1-58.7c56.6-58.1,102.8-87.1,138.7-87.1c5,0,10,0.7,14.9,2
					C406.1,137.8,408.6,139.2,408.6,140.7z"/>
			</g>
		</g>
	</g>
</g>
<g id="Layer_3">
	
		<image overflow="visible" opacity="0.75" width="278" height="161" xlink:href="5E3A48D88E6D77C3.png"  transform="matrix(1 0 0 1 254 186)">
	</image>
	<g>
		<g>
			<g enable-background="new    ">
				<path d="M482.6,210c0,3.3-3.3,6.1-9.9,8.4c-6.6,2.3-14.7,3.4-24.2,3.4c-9.6,0-21.5-1.3-35.8-3.9c-7.5,3.9-14.4,9.7-20.6,17.4
					c-6.2,7.7-12.9,18.5-20.1,32.6c-7.2,14.1-12.4,23.4-15.7,28.1s-7.9,9.2-13.7,13.6c-15.3,11.4-31.3,17.1-47.8,17.1
					c-8.8,0-16-1.9-21.6-5.6c-5.6-3.7-8.4-8.6-8.4-14.5c0-3,0.9-5.6,2.7-7.7c1.8-2.1,3.9-3.2,6.3-3.2c4,0,6,2.1,6,6.2
					c0,2-0.6,3.6-1.8,5c-1.2,1.4-2.7,2.1-4.5,2.1c-2.9,0-4.3-1.4-4.3-4.2c0-1.5-0.2-2.2-0.7-2.2c-1,0-1.6,1.5-1.6,4.5
					c0,5,2.6,9.1,7.7,12.6c5.1,3.4,11.4,5.1,18.8,5.1c16.4,0,31.1-7.4,44.1-22.2c6.1-6.9,14-18.3,23.7-34.2
					c15.8-25.8,32.2-42.8,49.4-50.9c-3.3-0.6-8.3-1.6-14.9-3c-15.5-3.4-27.4-5-35.7-5c-0.9,0-3.4,0.1-7.7,0.4
					c2.9,5.4,4.3,11.5,4.3,18.4c0,13.4-5.1,26.1-15.3,37.9c-10.2,11.8-21.1,17.7-32.7,17.7c-4.8,0-8.8-1.6-11.8-4.8
					c-3-3.2-4.5-7.3-4.5-12.4c0-7,2.6-14.7,7.9-23.1c5.3-8.5,12.1-15.9,20.5-22.2c8.4-6.3,17.6-10.7,27.6-13.2
					c-4.8-6.5-11.7-9.8-20.6-9.8c-7.5,0-15.1,2.2-22.8,6.6c-7.7,4.4-14.4,10.3-20.2,17.9c-0.9,1.2-1.4,1.7-1.7,1.7
					c-0.4,0-0.6-0.2-0.7-0.6c0-1,2.5-4.1,7.5-9.1c12-12,24.6-18,37.7-18c10.2,0,18,3.6,23.3,10.7c7.4-2.1,15.9-3.2,25.5-3.2
					c4.9,0,9.5,0.3,13.6,0.9c4.3,0.7,15,2.8,31.9,6.2c14.1-6.2,27.7-9.3,40.7-9.3C475.9,202.2,482.6,204.8,482.6,210z M353.1,223.8
					c0-4.9-1.1-9.4-3.4-13.6c-13.7,2.3-26.4,9.3-38.2,21.2c-11.8,11.9-17.7,23.5-17.7,35c0,4.4,1.4,8.1,4.1,11.1
					c2.7,3,6.1,4.5,10,4.5c10.3,0,20.4-6.4,30.3-19.1C348.1,250.2,353.1,237.1,353.1,223.8z M481.1,210.2c0-1.8-1.7-3.3-5.2-4.5
					c-3.5-1.2-7.8-1.8-13.1-1.8c-13.1,0-25.8,2.8-38,8.3c1.5,0.2,5.6,1,12.2,2.2c9.8,1.9,18.5,2.8,26,2.8c5,0,9.2-0.7,12.7-2.1
					C479.4,213.8,481.1,212.1,481.1,210.2z"/>
				<path d="M457.5,293.6c0,0.7-2,3-5.9,7.1c-5.3,5.6-9.9,8.4-13.9,8.4c-2.7,0-5-1.5-6.8-4.4c-5.4,7.5-9.9,12.7-13.3,15.6
					c-3.4,2.9-6.9,4.4-10.4,4.4c-3.1,0-5.7-1.1-7.8-3.2c-2.1-2.1-3.1-4.7-3.1-7.7c0-2.6,0.8-5.7,2.5-9.3
					c-9.2,13.4-16.4,20.2-21.6,20.2c-2.6,0-4.8-1.1-6.6-3.2c-1.8-2.1-2.7-4.7-2.7-7.7c0-3.5,1.8-8.3,5.4-14.5l15.2-25.8
					c2.4,0.4,4.2,0.6,5.4,0.6c1,0,3.1-0.2,6.1-0.6l-20.8,34c-3.3,5.3-5,9.2-5,11.6c0,2.8,1.3,4.1,3.8,4.1c2.8,0,6.9-3.1,12.3-9.2
					c5.5-6.1,10.9-13.8,16.3-22.9l10.3-17.7c3.3,0.3,5.4,0.5,6.2,0.5c2.1,0,3.9-0.2,5.2-0.5l-19.2,31c-4.2,6.9-6.3,11.7-6.3,14.3
					c0,3,1.6,4.5,4.7,4.5c6.2,0,13.8-6.6,22.7-19.7c-0.4-2.3-0.5-3.9-0.5-5c0-5.4,1.7-11.1,5.1-17c3.4-5.9,6.7-8.8,9.9-8.8
					c1.4,0,2.1,0.9,2.1,2.8c0,5.1-5,14.5-15,28.1c1.5,2.8,3.6,4.1,6.1,4.1c4.6,0,10.2-4.1,16.9-12.4c1.2-1.5,2-2.2,2.5-2.2
					C457.3,293.2,457.5,293.4,457.5,293.6z"/>
				<path d="M511.7,293.7c0,1-1.8,3.3-5.4,6.9c-5.4,5.4-10.3,8-14.9,8c-1.9,0-3.6-0.4-5-1.1c-8.1,11.4-15.7,17.1-22.8,17.1
					c-3.7,0-6.8-1.5-9.4-4.5c-2.6-3-3.9-6.6-3.9-10.9c0-9.4,6.2-18.5,18.5-27.2c8.7-6.2,15.8-9.3,21.5-9.3c5.3,0,7.9,2.8,7.9,8.4
					c0,7-3.7,15.5-11.1,25.4c1.2,0.7,2.6,1.1,4.1,1.1c2.8,0,6-1.3,9.6-3.8c3.7-2.6,6.7-5.6,9-9.2c0.7-0.9,1.2-1.3,1.5-1.3
					C511.6,293.3,511.7,293.5,511.7,293.7z M496.8,281.4c0-5-2.2-7.4-6.7-7.4c-5.6,0-12.3,5.3-20.4,16c-8,10.6-12,19.6-12,26.9
					c0,4.2,2,6.3,6.1,6.3c6.6,0,13.8-5.4,21.6-16.3c-1.8-2-2.7-4-2.7-6.1c0-3,1.2-6.1,3.6-9.3c2.4-3.2,4.7-4.8,7-4.8
					c1,0,1.7,0.6,2,1.8C496.3,286.4,496.8,284,496.8,281.4z"/>
			</g>
		</g>
	</g>
</g>
</svg>
