<?xml version="1.0" encoding="utf-8"?>
<!-- Generator: Adobe Illustrator 18.1.0, SVG Export Plug-In . SVG Version: 6.00 Build 0)  -->
<!DOCTYPE svg PUBLIC "-//W3C//DTD SVG 1.1//EN" "http://www.w3.org/Graphics/SVG/1.1/DTD/svg11.dtd">
<svg version="1.1" id="Layer_1" xmlns="http://www.w3.org/2000/svg" xmlns:xlink="http://www.w3.org/1999/xlink" x="0px" y="0px"
	 viewBox="0 0 156.2 146.9" enable-background="new 0 0 156.2 146.9" xml:space="preserve">
<g>
	<g>
		<path fill="#010101" d="M82.6,73.2c-17.1-16.5-19.3-35.8-5.6-49.9c12.9-13.3,33.3-13.4,46.7-0.3c10.9,10.6,15,34.2-4.7,49.7
			c1.1,1.6,3,1.7,4.5,2.5c13.7,7.7,22.5,19.5,28,33.9c4.2,11,5.3,22.5,4.6,34.3c-0.2,2.7-1.1,3.6-3.8,3.5
			c-34.1-0.1-68.2-0.1-102.3,0c-2.9,0-3.6-1.2-3.8-3.6c-2.4-26,9.3-57.8,36-69.7C82.3,73.5,82.4,73.3,82.6,73.2z"/>
		<path fill="#010101" d="M39.9,59.6c-5.6-4.2-10.3-8.7-13-15c-7.2-16.7,1.4-36,18.9-42.5c12.9-4.8,27.3-1.3,35.6,8.4
			c1.6,1.9,2,2.9-0.6,4.4C62.1,26.2,58,52.8,72.7,69.3c2.5,2.8,1.6,3.5-0.9,5.3c-18.4,13.1-27.4,31.6-29.6,53.6
			c-0.3,3.4-1.3,4.3-4.6,4.3c-11-0.2-22-0.2-33,0c-3.4,0.1-4.3-1.2-4.5-4.2C-1.5,100.7,12.2,72,38.5,60.6
			C38.9,60.4,39.1,60.2,39.9,59.6z"/>
	</g>
</g>
</svg>
