<?xml version="1.0" encoding="utf-8"?>
<!-- Generator: Adobe Illustrator 18.1.0, SVG Export Plug-In . SVG Version: 6.00 Build 0)  -->
<!DOCTYPE svg PUBLIC "-//W3C//DTD SVG 1.1//EN" "http://www.w3.org/Graphics/SVG/1.1/DTD/svg11.dtd">
<svg version="1.1" id="Layer_1" xmlns="http://www.w3.org/2000/svg" xmlns:xlink="http://www.w3.org/1999/xlink" x="0px" y="0px"
	 viewBox="0 0 512 512" enable-background="new 0 0 512 512" xml:space="preserve">
<rect fill="#24F5FF" width="512" height="512"/>
<g>
	<g>
		<defs>
			<filter id="Adobe_OpacityMaskFilter" filterUnits="userSpaceOnUse" x="316.3" y="27" width="114" height="65.4">
				<feColorMatrix  type="matrix" values="1 0 0 0 0  0 1 0 0 0  0 0 1 0 0  0 0 0 1 0"/>
			</filter>
		</defs>
		<mask maskUnits="userSpaceOnUse" x="316.3" y="27" width="114" height="65.4" id="SVGID_1_">
			<g filter="url(#Adobe_OpacityMaskFilter)">
				
					<image overflow="visible" enable-background="new    " width="119" height="70" xlink:href="71121BFA0EBE9FEE.jpeg"  transform="matrix(1 0 0 1 314 25)">
				</image>
			</g>
		</mask>
		<g mask="url(#SVGID_1_)">
			<ellipse fill="#FFFFFF" cx="373.3" cy="59.7" rx="57" ry="32.7"/>
		</g>
	</g>
	<g>
		<defs>
			<filter id="Adobe_OpacityMaskFilter_1_" filterUnits="userSpaceOnUse" x="362.3" y="43" width="117.4" height="55.4">
				<feColorMatrix  type="matrix" values="1 0 0 0 0  0 1 0 0 0  0 0 1 0 0  0 0 0 1 0"/>
			</filter>
		</defs>
		<mask maskUnits="userSpaceOnUse" x="362.3" y="43" width="117.4" height="55.4" id="SVGID_2_">
			<g filter="url(#Adobe_OpacityMaskFilter_1_)">
				
					<image overflow="visible" enable-background="new    " width="122" height="60" xlink:href="71121BFA0EBE9FF2.jpeg"  transform="matrix(1 0 0 1 360 41)">
				</image>
			</g>
		</mask>
		<g mask="url(#SVGID_2_)">
			<ellipse fill="#FFFFFF" cx="421" cy="70.7" rx="58.7" ry="27.7"/>
		</g>
	</g>
	<g>
		<defs>
			<filter id="Adobe_OpacityMaskFilter_2_" filterUnits="userSpaceOnUse" x="277" y="70.7" width="150.6" height="59.6">
				<feColorMatrix  type="matrix" values="1 0 0 0 0  0 1 0 0 0  0 0 1 0 0  0 0 0 1 0"/>
			</filter>
		</defs>
		<mask maskUnits="userSpaceOnUse" x="277" y="70.7" width="150.6" height="59.6" id="SVGID_3_">
			<g filter="url(#Adobe_OpacityMaskFilter_2_)">
				
					<image overflow="visible" enable-background="new    " width="155" height="65" xlink:href="71121BFA0EBE9FF2.jpeg"  transform="matrix(1 0 0 1 275 68)">
				</image>
			</g>
		</mask>
		<g mask="url(#SVGID_3_)">
			<ellipse fill="#FFFFFF" cx="352.3" cy="100.5" rx="75.3" ry="29.8"/>
		</g>
	</g>
	<g>
		<defs>
			<filter id="Adobe_OpacityMaskFilter_3_" filterUnits="userSpaceOnUse" x="277" y="53" width="102" height="47.6">
				<feColorMatrix  type="matrix" values="1 0 0 0 0  0 1 0 0 0  0 0 1 0 0  0 0 0 1 0"/>
			</filter>
		</defs>
		<mask maskUnits="userSpaceOnUse" x="277" y="53" width="102" height="47.6" id="SVGID_4_">
			<g filter="url(#Adobe_OpacityMaskFilter_3_)">
				
					<image overflow="visible" enable-background="new    " width="106" height="52" xlink:href="71121BFA0EBE9FF6.jpeg"  transform="matrix(1 0 0 1 275 51)">
				</image>
			</g>
		</mask>
		<g mask="url(#SVGID_4_)">
			<ellipse fill="#FFFFFF" cx="328" cy="76.8" rx="51" ry="23.8"/>
		</g>
	</g>
	<g>
		<defs>
			<filter id="Adobe_OpacityMaskFilter_4_" filterUnits="userSpaceOnUse" x="387" y="59.6" width="77.4" height="57.4">
				<feColorMatrix  type="matrix" values="1 0 0 0 0  0 1 0 0 0  0 0 1 0 0  0 0 0 1 0"/>
			</filter>
		</defs>
		<mask maskUnits="userSpaceOnUse" x="387" y="59.6" width="77.4" height="57.4" id="SVGID_5_">
			<g filter="url(#Adobe_OpacityMaskFilter_4_)">
				
					<image overflow="visible" enable-background="new    " width="82" height="62" xlink:href="71121BFA0EBE9FF6.jpeg"  transform="matrix(1 0 0 1 385 57)">
				</image>
			</g>
		</mask>
		<g mask="url(#SVGID_5_)">
			<ellipse fill="#FFFFFF" cx="425.7" cy="88.3" rx="38.7" ry="28.7"/>
		</g>
	</g>
</g>
<g>
	<g>
		<defs>
			<filter id="Adobe_OpacityMaskFilter_5_" filterUnits="userSpaceOnUse" x="61.3" y="112" width="114" height="65.4">
				<feColorMatrix  type="matrix" values="1 0 0 0 0  0 1 0 0 0  0 0 1 0 0  0 0 0 1 0"/>
			</filter>
		</defs>
		<mask maskUnits="userSpaceOnUse" x="61.3" y="112" width="114" height="65.4" id="SVGID_6_">
			<g filter="url(#Adobe_OpacityMaskFilter_5_)">
				
					<image overflow="visible" enable-background="new    " width="119" height="70" xlink:href="71121BFA0EBE9FF2.jpeg"  transform="matrix(1 0 0 1 59 110)">
				</image>
			</g>
		</mask>
		<g mask="url(#SVGID_6_)">
			<ellipse fill="#FFFFFF" cx="118.3" cy="144.7" rx="57" ry="32.7"/>
		</g>
	</g>
	<g>
		<defs>
			<filter id="Adobe_OpacityMaskFilter_6_" filterUnits="userSpaceOnUse" x="107.3" y="128" width="117.4" height="55.4">
				<feColorMatrix  type="matrix" values="1 0 0 0 0  0 1 0 0 0  0 0 1 0 0  0 0 0 1 0"/>
			</filter>
		</defs>
		<mask maskUnits="userSpaceOnUse" x="107.3" y="128" width="117.4" height="55.4" id="SVGID_7_">
			<g filter="url(#Adobe_OpacityMaskFilter_6_)">
				
					<image overflow="visible" enable-background="new    " width="122" height="60" xlink:href="71121BFA0EBE9FF2.jpeg"  transform="matrix(1 0 0 1 105 126)">
				</image>
			</g>
		</mask>
		<g mask="url(#SVGID_7_)">
			<ellipse fill="#FFFFFF" cx="166" cy="155.7" rx="58.7" ry="27.7"/>
		</g>
	</g>
	<g>
		<defs>
			<filter id="Adobe_OpacityMaskFilter_7_" filterUnits="userSpaceOnUse" x="22" y="155.7" width="150.6" height="59.6">
				<feColorMatrix  type="matrix" values="1 0 0 0 0  0 1 0 0 0  0 0 1 0 0  0 0 0 1 0"/>
			</filter>
		</defs>
		<mask maskUnits="userSpaceOnUse" x="22" y="155.7" width="150.6" height="59.6" id="SVGID_8_">
			<g filter="url(#Adobe_OpacityMaskFilter_7_)">
				
					<image overflow="visible" enable-background="new    " width="155" height="65" xlink:href="71121BFA0EBE9FFE.jpeg"  transform="matrix(1 0 0 1 20 153)">
				</image>
			</g>
		</mask>
		<g mask="url(#SVGID_8_)">
			<ellipse fill="#FFFFFF" cx="97.3" cy="185.5" rx="75.3" ry="29.8"/>
		</g>
	</g>
	<g>
		<defs>
			<filter id="Adobe_OpacityMaskFilter_8_" filterUnits="userSpaceOnUse" x="22" y="138" width="102" height="47.6">
				<feColorMatrix  type="matrix" values="1 0 0 0 0  0 1 0 0 0  0 0 1 0 0  0 0 0 1 0"/>
			</filter>
		</defs>
		<mask maskUnits="userSpaceOnUse" x="22" y="138" width="102" height="47.6" id="SVGID_9_">
			<g filter="url(#Adobe_OpacityMaskFilter_8_)">
				
					<image overflow="visible" enable-background="new    " width="106" height="52" xlink:href="71121BFA0EBE9FFE.jpeg"  transform="matrix(1 0 0 1 20 136)">
				</image>
			</g>
		</mask>
		<g mask="url(#SVGID_9_)">
			<ellipse fill="#FFFFFF" cx="73" cy="161.8" rx="51" ry="23.8"/>
		</g>
	</g>
	<g>
		<defs>
			<filter id="Adobe_OpacityMaskFilter_9_" filterUnits="userSpaceOnUse" x="132" y="144.6" width="77.4" height="57.4">
				<feColorMatrix  type="matrix" values="1 0 0 0 0  0 1 0 0 0  0 0 1 0 0  0 0 0 1 0"/>
			</filter>
		</defs>
		<mask maskUnits="userSpaceOnUse" x="132" y="144.6" width="77.4" height="57.4" id="SVGID_10_">
			<g filter="url(#Adobe_OpacityMaskFilter_9_)">
				
					<image overflow="visible" enable-background="new    " width="82" height="62" xlink:href="579E0B24218D1DB1.jpeg"  transform="matrix(1 0 0 1 130 142)">
				</image>
			</g>
		</mask>
		<g mask="url(#SVGID_10_)">
			<ellipse fill="#FFFFFF" cx="170.7" cy="173.3" rx="38.7" ry="28.7"/>
		</g>
	</g>
</g>
<g>
	<g>
		<defs>
			<filter id="Adobe_OpacityMaskFilter_10_" filterUnits="userSpaceOnUse" x="274.3" y="213" width="114" height="65.4">
				<feColorMatrix  type="matrix" values="1 0 0 0 0  0 1 0 0 0  0 0 1 0 0  0 0 0 1 0"/>
			</filter>
		</defs>
		<mask maskUnits="userSpaceOnUse" x="274.3" y="213" width="114" height="65.4" id="SVGID_11_">
			<g filter="url(#Adobe_OpacityMaskFilter_10_)">
				
					<image overflow="visible" enable-background="new    " width="119" height="70" xlink:href="579E0B24218D1DB7.jpeg"  transform="matrix(1 0 0 1 272 211)">
				</image>
			</g>
		</mask>
		<g mask="url(#SVGID_11_)">
			<ellipse fill="#FFFFFF" cx="331.3" cy="245.7" rx="57" ry="32.7"/>
		</g>
	</g>
	<g>
		<defs>
			<filter id="Adobe_OpacityMaskFilter_11_" filterUnits="userSpaceOnUse" x="320.3" y="229" width="117.4" height="55.4">
				<feColorMatrix  type="matrix" values="1 0 0 0 0  0 1 0 0 0  0 0 1 0 0  0 0 0 1 0"/>
			</filter>
		</defs>
		<mask maskUnits="userSpaceOnUse" x="320.3" y="229" width="117.4" height="55.4" id="SVGID_12_">
			<g filter="url(#Adobe_OpacityMaskFilter_11_)">
				
					<image overflow="visible" enable-background="new    " width="122" height="60" xlink:href="579E0B24218D1DB1.jpeg"  transform="matrix(1 0 0 1 318 227)">
				</image>
			</g>
		</mask>
		<g mask="url(#SVGID_12_)">
			<ellipse fill="#FFFFFF" cx="379" cy="256.7" rx="58.7" ry="27.7"/>
		</g>
	</g>
	<g>
		<defs>
			<filter id="Adobe_OpacityMaskFilter_12_" filterUnits="userSpaceOnUse" x="235" y="256.7" width="150.6" height="59.6">
				<feColorMatrix  type="matrix" values="1 0 0 0 0  0 1 0 0 0  0 0 1 0 0  0 0 0 1 0"/>
			</filter>
		</defs>
		<mask maskUnits="userSpaceOnUse" x="235" y="256.7" width="150.6" height="59.6" id="SVGID_13_">
			<g filter="url(#Adobe_OpacityMaskFilter_12_)">
				
					<image overflow="visible" enable-background="new    " width="155" height="65" xlink:href="579E0B24218D1DB3.jpeg"  transform="matrix(1 0 0 1 233 254)">
				</image>
			</g>
		</mask>
		<g mask="url(#SVGID_13_)">
			<ellipse fill="#FFFFFF" cx="310.3" cy="286.5" rx="75.3" ry="29.8"/>
		</g>
	</g>
	<g>
		<defs>
			<filter id="Adobe_OpacityMaskFilter_13_" filterUnits="userSpaceOnUse" x="235" y="239" width="102" height="47.6">
				<feColorMatrix  type="matrix" values="1 0 0 0 0  0 1 0 0 0  0 0 1 0 0  0 0 0 1 0"/>
			</filter>
		</defs>
		<mask maskUnits="userSpaceOnUse" x="235" y="239" width="102" height="47.6" id="SVGID_14_">
			<g filter="url(#Adobe_OpacityMaskFilter_13_)">
				
					<image overflow="visible" enable-background="new    " width="106" height="52" xlink:href="579E0B24218D1DB1.jpeg"  transform="matrix(1 0 0 1 233 237)">
				</image>
			</g>
		</mask>
		<g mask="url(#SVGID_14_)">
			<ellipse fill="#FFFFFF" cx="286" cy="262.8" rx="51" ry="23.8"/>
		</g>
	</g>
	<g>
		<defs>
			<filter id="Adobe_OpacityMaskFilter_14_" filterUnits="userSpaceOnUse" x="345" y="245.6" width="77.4" height="57.4">
				<feColorMatrix  type="matrix" values="1 0 0 0 0  0 1 0 0 0  0 0 1 0 0  0 0 0 1 0"/>
			</filter>
		</defs>
		<mask maskUnits="userSpaceOnUse" x="345" y="245.6" width="77.4" height="57.4" id="SVGID_15_">
			<g filter="url(#Adobe_OpacityMaskFilter_14_)">
				
					<image overflow="visible" enable-background="new    " width="82" height="62" xlink:href="579E0B24218D1DCF.jpeg"  transform="matrix(1 0 0 1 343 243)">
				</image>
			</g>
		</mask>
		<g mask="url(#SVGID_15_)">
			<ellipse fill="#FFFFFF" cx="383.7" cy="274.3" rx="38.7" ry="28.7"/>
		</g>
	</g>
</g>
<g>
	<g>
		<defs>
			<filter id="Adobe_OpacityMaskFilter_15_" filterUnits="userSpaceOnUse" x="88.3" y="335" width="114" height="65.4">
				<feColorMatrix  type="matrix" values="1 0 0 0 0  0 1 0 0 0  0 0 1 0 0  0 0 0 1 0"/>
			</filter>
		</defs>
		<mask maskUnits="userSpaceOnUse" x="88.3" y="335" width="114" height="65.4" id="SVGID_16_">
			<g filter="url(#Adobe_OpacityMaskFilter_15_)">
				
					<image overflow="visible" enable-background="new    " width="119" height="70" xlink:href="579E0B24218D1DD1.jpeg"  transform="matrix(1 0 0 1 86 333)">
				</image>
			</g>
		</mask>
		<g mask="url(#SVGID_16_)">
			<ellipse fill="#FFFFFF" cx="145.3" cy="367.7" rx="57" ry="32.7"/>
		</g>
	</g>
	<g>
		<defs>
			<filter id="Adobe_OpacityMaskFilter_16_" filterUnits="userSpaceOnUse" x="134.3" y="351" width="117.4" height="55.4">
				<feColorMatrix  type="matrix" values="1 0 0 0 0  0 1 0 0 0  0 0 1 0 0  0 0 0 1 0"/>
			</filter>
		</defs>
		<mask maskUnits="userSpaceOnUse" x="134.3" y="351" width="117.4" height="55.4" id="SVGID_17_">
			<g filter="url(#Adobe_OpacityMaskFilter_16_)">
				
					<image overflow="visible" enable-background="new    " width="122" height="60" xlink:href="579E0B24218D1DD3.jpeg"  transform="matrix(1 0 0 1 132 349)">
				</image>
			</g>
		</mask>
		<g mask="url(#SVGID_17_)">
			<ellipse fill="#FFFFFF" cx="193" cy="378.7" rx="58.7" ry="27.7"/>
		</g>
	</g>
	<g>
		<defs>
			<filter id="Adobe_OpacityMaskFilter_17_" filterUnits="userSpaceOnUse" x="49" y="378.7" width="150.6" height="59.6">
				<feColorMatrix  type="matrix" values="1 0 0 0 0  0 1 0 0 0  0 0 1 0 0  0 0 0 1 0"/>
			</filter>
		</defs>
		<mask maskUnits="userSpaceOnUse" x="49" y="378.7" width="150.6" height="59.6" id="SVGID_18_">
			<g filter="url(#Adobe_OpacityMaskFilter_17_)">
				
					<image overflow="visible" enable-background="new    " width="155" height="65" xlink:href="579E0B24218D1DD1.jpeg"  transform="matrix(1 0 0 1 47 376)">
				</image>
			</g>
		</mask>
		<g mask="url(#SVGID_18_)">
			<ellipse fill="#FFFFFF" cx="124.3" cy="408.5" rx="75.3" ry="29.8"/>
		</g>
	</g>
	<g>
		<defs>
			<filter id="Adobe_OpacityMaskFilter_18_" filterUnits="userSpaceOnUse" x="49" y="361" width="102" height="47.6">
				<feColorMatrix  type="matrix" values="1 0 0 0 0  0 1 0 0 0  0 0 1 0 0  0 0 0 1 0"/>
			</filter>
		</defs>
		<mask maskUnits="userSpaceOnUse" x="49" y="361" width="102" height="47.6" id="SVGID_19_">
			<g filter="url(#Adobe_OpacityMaskFilter_18_)">
				
					<image overflow="visible" enable-background="new    " width="106" height="52" xlink:href="579E0B24218D1DD7.jpeg"  transform="matrix(1 0 0 1 47 359)">
				</image>
			</g>
		</mask>
		<g mask="url(#SVGID_19_)">
			<ellipse fill="#FFFFFF" cx="100" cy="384.8" rx="51" ry="23.8"/>
		</g>
	</g>
	<g>
		<defs>
			<filter id="Adobe_OpacityMaskFilter_19_" filterUnits="userSpaceOnUse" x="159" y="367.6" width="77.4" height="57.4">
				<feColorMatrix  type="matrix" values="1 0 0 0 0  0 1 0 0 0  0 0 1 0 0  0 0 0 1 0"/>
			</filter>
		</defs>
		<mask maskUnits="userSpaceOnUse" x="159" y="367.6" width="77.4" height="57.4" id="SVGID_20_">
			<g filter="url(#Adobe_OpacityMaskFilter_19_)">
				
					<image overflow="visible" enable-background="new    " width="82" height="62" xlink:href="579E0B24218D1DF4.jpeg"  transform="matrix(1 0 0 1 157 365)">
				</image>
			</g>
		</mask>
		<g mask="url(#SVGID_20_)">
			<ellipse fill="#FFFFFF" cx="197.7" cy="396.3" rx="38.7" ry="28.7"/>
		</g>
	</g>
</g>
</svg>
